HIERARCHY
ROOT joint_Root
{
	OFFSET 0.0 0.0 0.0
	CHANNELS 6 Xposition Yposition Zposition Zrotation Xrotation Yrotation 
	JOINT Hips
	{
		OFFSET 4.5925 91.4895 -427.239
		CHANNELS 6 Xposition Yposition Zposition Zrotation Xrotation Yrotation 
		JOINT Spine
		{
			OFFSET 15.7357 0.0 0.0
			CHANNELS 6 Xposition Yposition Zposition Zrotation Xrotation Yrotation 
			JOINT Chest
			{
				OFFSET 8.98455 -0.406207 0.0
				CHANNELS 6 Xposition Yposition Zposition Zrotation Xrotation Yrotation 
				JOINT Neck
				{
					OFFSET 16.3773 0.0 0.0
					CHANNELS 6 Xposition Yposition Zposition Zrotation Xrotation Yrotation 
					JOINT Head
					{
						OFFSET 6.45672 0.0 0.0
						CHANNELS 6 Xposition Yposition Zposition Zrotation Xrotation Yrotation 
						End Site
						{
							OFFSET 0.0 0.0 0.0
						}
					}
				}
				JOINT Shoulder_L
				{
					OFFSET 12.9942 -0.242716 4.98039
					CHANNELS 6 Xposition Yposition Zposition Zrotation Xrotation Yrotation 
					JOINT UpperArm_L
					{
						OFFSET 5.34809 0.0 0.0
						CHANNELS 6 Xposition Yposition Zposition Zrotation Xrotation Yrotation 
						JOINT LowerArm_L
						{
							OFFSET 24.3286 1.87007e-05 0.0
							CHANNELS 6 Xposition Yposition Zposition Zrotation Xrotation Yrotation 
							JOINT Hand_L
							{
								OFFSET 22.2916 0.0 0.0
								CHANNELS 6 Xposition Yposition Zposition Zrotation Xrotation Yrotation 
								End Site
								{
									OFFSET 0.0 0.0 0.0
								}
							}
						}
					}
				}
				JOINT Shoulder_R
				{
					OFFSET 12.9945 -0.242716 -4.98039
					CHANNELS 6 Xposition Yposition Zposition Zrotation Xrotation Yrotation 
					JOINT UpperArm_R
					{
						OFFSET -5.34813 0.0 0.0
						CHANNELS 6 Xposition Yposition Zposition Zrotation Xrotation Yrotation 
						JOINT LowerArm_R
						{
							OFFSET -24.3289 0.000322201 0.0
							CHANNELS 6 Xposition Yposition Zposition Zrotation Xrotation Yrotation 
							JOINT Hand_R
							{
								OFFSET -22.2915 -0.000108084 0.0
								CHANNELS 6 Xposition Yposition Zposition Zrotation Xrotation Yrotation 
								End Site
								{
									OFFSET 0.0 0.0 0.0
								}
							}
						}
					}
				}
			}
		}
		JOINT UpperLeg_L
		{
			OFFSET -2.19248 -6.46944 0.0
			CHANNELS 6 Xposition Yposition Zposition Zrotation Xrotation Yrotation 
			JOINT LowerLeg_L
			{
				OFFSET 39.0811 0.0 -1.23785e-05
				CHANNELS 6 Xposition Yposition Zposition Zrotation Xrotation Yrotation 
				JOINT Foot_L
				{
					OFFSET 40.9854 0.0 -1.26872e-05
					CHANNELS 6 Xposition Yposition Zposition Zrotation Xrotation Yrotation 
					JOINT Toes_L
					{
						OFFSET 11.7543 0.0 0.0
						CHANNELS 6 Xposition Yposition Zposition Zrotation Xrotation Yrotation 
						End Site
						{
							OFFSET 0.0 0.0 0.0
						}
					}
				}
			}
		}
		JOINT UpperLeg_R
		{
			OFFSET -2.19251 6.46944 0.0
			CHANNELS 6 Xposition Yposition Zposition Zrotation Xrotation Yrotation 
			JOINT LowerLeg_R
			{
				OFFSET -39.0811 -0.00228153 -0.0401928
				CHANNELS 6 Xposition Yposition Zposition Zrotation Xrotation Yrotation 
				JOINT Foot_R
				{
					OFFSET -40.9854 0.0 0.0
					CHANNELS 6 Xposition Yposition Zposition Zrotation Xrotation Yrotation 
					JOINT Toes_R
					{
						OFFSET -11.7543 0.0 0.0
						CHANNELS 6 Xposition Yposition Zposition Zrotation Xrotation Yrotation 
						End Site
						{
							OFFSET 0.0 0.0 0.0
						}
					}
				}
			}
		}
	}
}
MOTION
Frames:	7
Frame Time:	0.0333333
0.000000 0.000000 0.000000 0.000000 0.000000 -0.000000 2.078080 90.935300 -452.312000 88.161600 -12.603300 -17.992600 15.735700 0.000005 -0.000001 118.202000 80.544700 -120.429000 8.984550 -0.406207 -0.000000 9.158230 8.862810 -5.166980 16.377300 -0.000001 -0.000001 -1.420720 -3.021920 4.092760 6.456720 -0.000001 -0.000000 -13.258000 -5.300770 0.770834 12.994200 -0.242716 4.980390 -87.923400 -5.575940 -69.537500 5.348090 -0.000007 -0.000001 -70.154500 15.998100 28.248400 24.328600 0.000019 0.000005 13.756100 20.779900 -34.606200 22.291600 -0.000001 0.000005 7.301570 5.484970 -5.945120 12.994500 -0.242716 -4.980390 90.257600 -2.072900 -82.924000 -5.348130 -0.000001 -0.000004 -56.781000 8.950010 -45.750400 -24.328900 0.000322 -0.000009 -5.174080 -0.500225 -84.467400 -22.291500 -0.000108 -0.000004 16.248100 5.451020 -4.676570 -2.192480 -6.469440 -0.000000 170.837000 -10.809000 -47.692400 39.081100 -0.000007 -0.000012 -0.051316 0.074817 34.446100 40.985400 -0.000006 -0.000013 -4.797310 3.441040 -75.434500 11.754300 -0.000000 0.000003 -0.004402 -0.055567 -18.837300 -2.192510 6.469440 -0.000001 169.375000 12.929300 -175.916000 -39.081100 -0.002282 -0.040193 0.188302 -0.248181 36.704200 -40.985400 0.000008 0.000006 2.849770 9.937960 -33.720300 -11.754300 -0.000006 -0.000006 -0.022366 -0.180059 -23.934400
0.000000 0.000000 0.000000 0.000000 0.000000 -0.000000 1.491290 89.498800 -443.767000 86.120600 -12.813700 -16.451900 15.735700 0.000005 -0.000001 116.710000 80.194700 -118.707000 8.984550 -0.406207 -0.000000 9.993650 8.721500 -4.760110 16.377300 -0.000001 -0.000001 -1.519950 -2.356200 4.237380 6.456720 -0.000001 -0.000000 -13.217700 -4.964550 1.564400 12.994200 -0.242716 4.980390 -89.187900 -2.244730 -70.113400 5.348090 -0.000007 -0.000001 -69.728500 10.902300 21.745700 24.328600 0.000019 0.000005 12.329900 19.056600 -33.801900 22.291600 -0.000001 0.000005 8.114510 5.478680 -5.699050 12.994500 -0.242716 -4.980390 90.003600 -0.033540 -84.249200 -5.348130 -0.000001 -0.000004 -57.440300 14.928200 -39.088000 -24.328900 0.000322 -0.000009 -3.926390 -1.026060 -75.348400 -22.291500 -0.000108 -0.000004 16.093000 5.474960 -5.563470 -2.192480 -6.469440 -0.000000 169.385000 -14.935600 -45.023600 39.081100 -0.000007 -0.000012 0.546634 -0.792753 34.589300 40.985400 -0.000006 -0.000013 6.871870 -5.599600 -76.468600 11.754300 -0.000000 0.000003 -0.003856 -0.049937 -18.608000 -2.192510 6.469440 -0.000001 172.300000 7.147920 -176.961000 -39.081100 -0.002282 -0.040193 0.186619 -0.158394 49.179700 -40.985400 0.000008 0.000006 5.876990 2.194990 -32.617800 -11.754300 -0.000006 -0.000006 -0.020953 -0.172513 -23.623100
0.000000 0.000000 0.000000 0.000000 0.000000 -0.000000 1.254500 87.128400 -435.708000 86.692000 -11.144500 -15.965400 15.735700 0.000005 -0.000001 110.145000 80.759800 -112.524000 8.984550 -0.406207 -0.000000 9.762900 6.285410 -5.294310 16.377300 -0.000001 -0.000001 -1.499130 -2.159220 4.584110 6.456720 -0.000001 -0.000000 -13.347000 -4.131480 2.708500 12.994200 -0.242716 4.980390 -90.411500 1.182380 -70.789900 5.348090 -0.000007 -0.000001 -68.681200 9.675030 13.601100 24.328600 0.000019 0.000005 10.678000 15.248300 -35.642400 22.291600 -0.000001 0.000005 7.511600 5.489190 -6.098990 12.994500 -0.242716 -4.980390 89.713900 3.058190 -84.654000 -5.348130 -0.000001 -0.000004 -57.925100 21.172500 -31.891500 -24.328900 0.000322 -0.000009 -2.293130 -1.142620 -63.447500 -22.291500 -0.000108 -0.000004 14.466000 5.490380 -6.154990 -2.192480 -6.469440 -0.000000 168.976000 -15.298900 -46.595100 39.081100 -0.000007 -0.000012 0.528863 -0.541927 44.302100 40.985400 -0.000006 -0.000013 7.925220 -8.161980 -67.098800 11.754300 -0.000000 0.000003 -0.003518 -0.046332 -18.461200 -2.192510 6.469440 -0.000001 172.586000 7.354180 175.755000 -39.081100 -0.002282 -0.040193 0.212867 -0.079456 69.252300 -40.985400 0.000008 0.000006 8.062010 0.397058 -29.630000 -11.754300 -0.000006 -0.000006 -0.021008 -0.172809 -23.635300
0.000000 0.000000 0.000000 0.000000 0.000000 -0.000000 1.096040 83.795200 -428.456000 88.440300 -7.204960 -14.558900 15.735700 0.000005 -0.000001 99.519200 81.042900 -102.061000 8.984550 -0.406207 -0.000000 9.980660 2.894980 -5.334250 16.377300 -0.000001 -0.000001 -2.567110 -2.566370 3.830370 6.456720 -0.000001 -0.000000 -12.118400 -4.272620 4.063830 12.994200 -0.242716 4.980390 -91.386100 4.156540 -71.535300 5.348090 -0.000007 -0.000001 -65.813700 12.216300 2.081610 24.328600 0.000019 0.000005 10.391300 12.490900 -40.296800 22.291600 -0.000001 0.000005 9.220370 5.496490 -6.400810 12.994500 -0.242716 -4.980390 89.415600 5.871870 -84.308300 -5.348130 -0.000001 -0.000004 -59.222800 25.815400 -21.819500 -24.328900 0.000322 -0.000009 -1.957850 -1.578180 -51.237300 -22.291500 -0.000108 -0.000004 10.249100 5.474340 -5.526010 -2.192480 -6.469440 -0.000000 169.537000 -10.262000 -45.416300 39.081100 -0.000007 -0.000012 -0.316007 0.210994 56.270300 40.985400 -0.000006 -0.000013 6.154040 -9.755690 -77.572800 11.754300 -0.000000 0.000003 -0.000512 -0.008216 -16.911200 -2.192510 6.469440 -0.000001 172.889000 8.817230 164.840000 -39.081100 -0.002282 -0.040193 0.239587 0.012670 93.090400 -40.985400 0.000008 0.000006 5.109830 2.824410 -26.254800 -11.754300 -0.000006 -0.000006 -0.022440 -0.180444 -23.950300
0.000000 0.000000 0.000000 0.000000 0.000000 -0.000000 1.167380 81.091700 -421.680000 91.471700 -2.598190 -12.935500 15.735700 0.000005 -0.000001 91.231800 80.302700 -94.057800 8.984550 -0.406207 -0.000000 11.638500 0.318009 -5.682500 16.377300 -0.000001 -0.000001 -4.292900 -4.231630 2.634180 6.456720 -0.000001 -0.000000 -12.280200 -5.430070 5.591630 12.994200 -0.242716 4.980390 -91.676200 5.754380 -73.729800 5.348090 -0.000007 -0.000001 -63.184700 12.379200 -14.154300 24.328600 0.000019 0.000005 10.854100 10.259300 -47.118100 22.291600 -0.000001 0.000005 11.138500 5.500590 -6.556770 12.994500 -0.242716 -4.980390 88.961600 8.240110 -82.794900 -5.348130 -0.000001 -0.000004 -60.894900 26.918000 -9.999690 -24.328900 0.000322 -0.000009 -5.249220 -6.810570 -37.862400 -22.291500 -0.000108 -0.000004 5.704600 5.445090 -4.433880 -2.192480 -6.469440 -0.000000 167.904000 -6.531630 -40.955100 39.081100 -0.000007 -0.000012 -0.639252 0.333623 62.441600 40.985400 -0.000006 -0.000013 5.375670 -9.706330 -85.971000 11.754300 -0.000000 0.000003 -0.000007 -0.000096 -16.581300 -2.192510 6.469440 -0.000001 173.013000 8.983560 150.697000 -39.081100 -0.002282 -0.040193 0.010822 0.003268 114.127000 -40.985400 0.000008 0.000006 2.504720 6.680160 -24.579500 -11.754300 -0.000006 -0.000006 -0.023879 -0.187898 -24.258000
0.000000 0.000000 0.000000 0.000000 0.000000 -0.000000 0.819623 79.495000 -414.980000 91.745900 1.887160 -13.942200 15.735700 0.000005 -0.000001 85.776900 80.243000 -88.062000 8.984550 -0.406207 -0.000000 11.671700 -1.502860 -4.415140 16.377300 -0.000001 -0.000001 -5.185950 -5.053820 2.095870 6.456720 -0.000001 -0.000000 -12.158800 -5.746210 6.349030 12.994200 -0.242716 4.980390 -90.952500 3.821450 -76.006200 5.348090 -0.000007 -0.000001 -63.275400 11.029000 -29.975000 24.328600 0.000019 0.000005 11.561000 7.414740 -57.759900 22.291600 -0.000001 0.000005 11.508800 5.514840 -7.141540 12.994500 -0.242716 -4.980390 88.690700 8.781920 -81.486000 -5.348130 -0.000001 -0.000004 -64.108100 24.959400 2.347350 -24.328900 0.000322 -0.000009 -3.747650 -8.796880 -23.103500 -22.291500 -0.000108 -0.000004 2.098350 5.401830 -2.976720 -2.192480 -6.469440 -0.000000 169.201000 -4.634500 -36.916900 39.081100 -0.000007 -0.000012 -0.745001 0.352099 64.705600 40.985400 -0.000006 -0.000013 4.898550 -7.965140 -92.621000 11.754300 -0.000000 0.000003 -0.000021 -0.000261 -16.587800 -2.192510 6.469440 -0.000001 176.473000 8.457730 131.852000 -39.081100 -0.002282 -0.040193 -0.299903 -0.237163 128.018000 -40.985400 0.000008 0.000006 1.465410 4.782690 -23.915400 -11.754300 -0.000006 -0.000006 -0.024639 -0.191750 -24.417200
0.000000 0.000000 0.000000 0.000000 0.000000 -0.000000 -0.061963 79.535500 -406.942000 90.174100 7.734660 -15.688500 15.735700 0.000005 -0.000001 76.125500 80.506700 -76.892000 8.984550 -0.406207 -0.000000 10.660900 -4.540050 -1.108950 16.377300 -0.000001 -0.000001 -5.323140 -5.229040 1.673060 6.456720 -0.000001 -0.000000 -11.531100 -4.820490 6.646390 12.994200 -0.242716 4.980390 -90.135700 0.621832 -77.732500 5.348090 -0.000007 -0.000001 -63.101000 8.397800 -42.435700 24.328600 0.000019 0.000005 14.666700 5.575430 -69.606700 22.291600 -0.000001 0.000005 12.545000 5.522600 -7.477440 12.994500 -0.242716 -4.980390 88.538300 8.066380 -79.691800 -5.348130 -0.000001 -0.000004 -64.544800 19.667000 14.582500 -24.328900 0.000322 -0.000009 0.443161 1.616030 -15.479300 -22.291500 -0.000108 -0.000004 0.056822 5.338350 -1.018760 -2.192480 -6.469440 -0.000000 174.040000 -4.318740 -30.169600 39.081100 -0.000007 -0.000012 -0.730444 0.404907 61.000900 40.985400 -0.000006 -0.000013 5.139520 -3.165690 -97.090300 11.754300 -0.000000 0.000003 -0.000028 -0.000345 -16.591000 -2.192510 6.469440 -0.000001 -176.903000 8.485800 117.512000 -39.081100 -0.002282 -0.040193 -0.571530 -0.508575 131.493000 -40.985400 0.000008 0.000006 6.713140 -1.680970 -32.123700 -11.754300 -0.000006 -0.000006 -0.024840 -0.192758 -24.458900
